<svg width="38" height="38" viewBox="0 0 38 38" fill="none" xmlns="http://www.w3.org/2000/svg">
<path d="M34.9139 34.2425V11.4142C34.9139 11.2324 34.844 11.0785 34.7041 10.9526C34.5782 10.8127 34.4243 10.7428 34.2425 10.7428H11.4142C11.2323 10.7428 11.0715 10.8127 10.9316 10.9526C10.8057 11.0785 10.7427 11.2324 10.7427 11.4142V34.2425C10.7427 34.4244 10.8057 34.5782 10.9316 34.7041C11.0715 34.844 11.2323 34.914 11.4142 34.914H34.2425C34.4243 34.914 34.5782 34.844 34.7041 34.7041C34.844 34.5782 34.9139 34.4244 34.9139 34.2425ZM37.5996 11.4142V34.2425C37.5996 35.1657 37.2709 35.9561 36.6135 36.6135C35.956 37.2709 35.1657 37.5996 34.2425 37.5996H11.4142C10.491 37.5996 9.70064 37.2709 9.04321 36.6135C8.38578 35.9561 8.05706 35.1657 8.05706 34.2425V11.4142C8.05706 10.491 8.38578 9.70068 9.04321 9.04324C9.70064 8.38581 10.491 8.05709 11.4142 8.05709H34.2425C35.1657 8.05709 35.956 8.38581 36.6135 9.04324C37.2709 9.70068 37.5996 10.491 37.5996 11.4142ZM29.5426 3.35714V6.71425H26.8569V3.35714C26.8569 3.1753 26.7869 3.02143 26.647 2.89554C26.5212 2.75566 26.3673 2.68572 26.1854 2.68572H3.35711C3.17526 2.68572 3.0144 2.75566 2.87452 2.89554C2.74863 3.02143 2.68569 3.1753 2.68569 3.35714V26.1855C2.68569 26.3673 2.74863 26.5282 2.87452 26.6681C3.0144 26.794 3.17526 26.8569 3.35711 26.8569H6.71422V29.5426H3.35711C2.4339 29.5426 1.64358 29.2139 0.98615 28.5564C0.328717 27.899 0 27.1087 0 26.1855V3.35714C0 2.43394 0.328717 1.64362 0.98615 0.986184C1.64358 0.32875 2.4339 3.2316e-05 3.35711 3.2316e-05H26.1854C27.1086 3.2316e-05 27.899 0.32875 28.5564 0.986184C29.2138 1.64362 29.5426 2.43394 29.5426 3.35714Z" fill="white"/>
</svg>
