<svg width="44" height="35" viewBox="0 0 44 35" fill="none" xmlns="http://www.w3.org/2000/svg">
<path d="M4.46915 13.4285L17.5409 27.3815L11.2463 13.4285H4.46915ZM21.5065 29.6265L28.8292 13.4285H14.1838L21.5065 29.6265ZM11.3093 10.7428L15.5896 2.68574H10.0923L4.04951 10.7428H11.3093ZM25.4721 27.3815L38.5438 13.4285H31.7666L25.4721 27.3815ZM14.3516 10.7428H28.6613L24.381 2.68574H18.632L14.3516 10.7428ZM31.7037 10.7428H38.9634L32.9206 2.68574H27.4234L31.7037 10.7428ZM34.6621 0.545582L42.7192 11.2883C42.915 11.5401 43.006 11.8339 42.992 12.1696C42.978 12.4913 42.8591 12.771 42.6353 13.0088L22.4926 34.4943C22.2408 34.7741 21.9121 34.914 21.5065 34.914C21.1008 34.914 20.7721 34.7741 20.5203 34.4943L0.377675 13.0088C0.153867 12.771 0.0349697 12.4913 0.0209818 12.1696C0.00699384 11.8339 0.0979155 11.5401 0.293747 11.2883L8.35081 0.545582C8.60259 0.181894 8.95928 5.07151e-05 9.42088 5.07151e-05H33.5921C34.0537 5.07151e-05 34.4104 0.181894 34.6621 0.545582Z" fill="white"/>
</svg>
